<svg width="410" height="300" viewBox="0 0 410 300" fill="none" xmlns="http://www.w3.org/2000/svg">
<path fill-rule="evenodd" clip-rule="evenodd" d="M375.236 1.7765C369.52 3.567 366.768 5.60901 362.465 11.252C359.19 15.5466 358.61 17.1185 358.123 23.018C357.365 32.1871 358.869 37.0736 364.303 43.1188C371.307 50.9095 382.891 53.4945 393.932 49.7318C398.856 48.0541 405.226 42.0518 408.214 36.2721C410.641 31.5793 410.593 21.0628 408.119 15.8161C402.381 3.64185 388.371 -2.33947 375.236 1.7765ZM188.706 16.4728C182.23 17.9918 172.691 23.2156 166.788 28.4774C160.121 34.4197 156.716 41.1706 152.765 56.2761C151.258 62.0398 149.199 69.6749 148.19 73.2429C147.181 76.811 141.594 99.0425 135.773 122.646C129.953 146.25 124.749 166.953 124.21 168.653C123.672 170.352 122.307 175.742 121.178 180.629C120.048 185.517 118.579 191.877 117.912 194.764V194.764C117.569 196.251 115.487 196.348 115.007 194.899L108.845 176.3C104.524 163.258 99.3065 147.648 97.2486 141.609C94.1616 132.549 83.7111 101.929 79.8368 90.5783C78.8612 87.72 78.0267 84.8286 76.9867 81.9931C73.5634 72.659 64.2365 54.9902 40.4739 54.9902C21.6522 55.0577 4.19631 71.1682 0.706077 89.9889C-0.0887387 94.2749 0.173752 98.6908 1.17846 102.932C1.99461 106.378 3.39489 110.925 5.77683 115.863C25.4354 164.17 62.9992 261.585 63.9954 264.169C64.0268 264.251 64.0312 264.262 64.0626 264.344C69.4405 278.259 80.6213 290.29 94.4214 296.525C107.195 302.297 122.204 300.327 134.705 293.985C158.89 281.715 166.56 260.192 173.185 228.939C175.488 219.882 178.167 209.552 179.14 205.984C180.113 202.416 182.8 192.086 185.112 183.029C187.424 173.971 190.114 163.641 191.09 160.073C192.065 156.505 193.651 150.523 194.614 146.779C195.578 143.036 196.692 140.341 197.091 140.791C197.489 141.241 199.726 149.02 202.061 158.077C204.396 167.135 208.1 181.506 210.291 190.015C212.482 198.523 215.072 208.404 216.048 211.972C218.571 221.202 221.541 232.38 225.595 247.902C227.53 255.312 230.395 264.126 231.96 267.488C236.703 277.669 252.08 291.494 264.656 296.885C267.235 297.99 272.739 299.149 276.889 299.46C292.484 300.63 305.07 295.843 316.421 284.422C323.747 277.053 326.468 272.42 331.716 258.381C339.06 238.735 348.926 213.317 349.822 211.736C350.362 210.783 350.804 209.543 350.804 208.981C350.804 208.418 351.644 206.055 352.67 203.727C353.695 201.401 359.129 187.819 364.746 173.547C370.362 159.275 375.588 146.25 376.359 144.604C377.131 142.957 381.201 133.076 385.404 122.646C394.328 100.497 394.956 96.0015 390.862 83.5079C387.803 74.1731 386.47 72.3127 384.048 74.0054C374.517 80.6694 370.593 81.8641 363.677 80.2053C361.009 79.5646 357.081 77.7771 354.95 76.2331C350.471 72.9894 345.814 64.496 345.814 59.5736C345.814 57.0715 345.384 56.2761 344.028 56.2761C340.148 56.2761 330.041 62.7454 324.153 68.9992C319.428 74.0174 317.589 78.9917 289.392 163.067C277.351 198.974 277.16 199.439 276.112 195.504C275.528 193.308 272.091 179.386 268.476 164.565C264.86 149.744 261.433 135.821 260.858 133.625C259.759 129.424 257.26 119.367 254.1 106.428C252.311 99.1014 246.796 78.0725 240.294 53.7809C236.653 40.1795 234.199 35.324 227.831 29.1211C217.153 18.7204 201.163 13.5515 188.706 16.4728Z" fill="url(#paint0_linear_25_6)"/>
<defs>
<linearGradient id="paint0_linear_25_6" x1="0.0757103" y1="150.777" x2="410.005" y2="150.777" gradientUnits="userSpaceOnUse">
<stop stop-color="#1B6E9E"/>
<stop offset="1" stop-color="#2DAD76"/>
</linearGradient>
</defs>
</svg>
